# xmcd
#
# Track frame offsets:
#	150
#	12220
#	28017
#	40892
#	55277
#	70647
#	84427
#	97902
#	114025
#	131625
#	150305
#	166892
#	181472
#	198075
#	215840
#
# Disc length: 3087 seconds
#
# Revision: 6
# Processed by: cddbd v1.5.2PL0 Copyright (c) Steve Scherf et al.
# Submitted via: EasyCDDAExtractor 15.3.0.1
#
DISCID=b70c0d0f
DTITLE=Daniela Romo - 15 Exitos De Oro
DYEAR=1989
DGENRE=Latin
TTITLE0=Celos
TTITLE1=De Mi Enamorate
TTITLE2=Mujer De Todos, Mujer De Nadie
TTITLE3=Dueña De Mi Corazon
TTITLE4=Amor Prohibido
TTITLE5=Prometes
TTITLE6=Me Alimento De Ti (A Dueto Con Mijares)
TTITLE7=Coco Loco
TTITLE8=Yo No Te Pido La Luna (Non Voglio Mica La Luna)
TTITLE9=Abuso
TTITLE10=La Ocasion Para Amarnos
TTITLE11=Veneno Para Dos
TTITLE12=Ya No Somos Amantes
TTITLE13=Mentiras
TTITLE14=Adelante Corazon
EXTD=
EXTT0=
EXTT1=
EXTT2=
EXTT3=
EXTT4=
EXTT5=
EXTT6=
EXTT7=
EXTT8=
EXTT9=
EXTT10=
EXTT11=
EXTT12=
EXTT13=
EXTT14=
PLAYORDER=
